<?xml version="1.0" encoding="UTF-8" standalone="no"?>
<!DOCTYPE svg PUBLIC "-//W3C//DTD SVG 1.1//EN"
 "http://www.w3.org/Graphics/SVG/1.1/DTD/svg11.dtd">
<!-- Generated by graphviz version 2.50.0 (20211204.2007)
 -->
<!-- Title: ID Pages: 1 -->
<svg width="385pt" height="548pt"
 viewBox="0.00 0.00 385.10 548.00" xmlns="http://www.w3.org/2000/svg" xmlns:xlink="http://www.w3.org/1999/xlink">
<g id="graph0" class="graph" transform="scale(1 1) rotate(0) translate(4 544)">
<title>ID</title>
<polygon fill="white" stroke="transparent" points="-4,4 -4,-544 381.1,-544 381.1,4 -4,4"/>
<!-- v1 -->
<g id="node1" class="node">
<title>v1</title>
<polygon fill="white" stroke="black" points="235.54,-540 104.54,-540 104.54,-504 235.54,-504 235.54,-540"/>
<text text-anchor="middle" x="170.04" y="-518.3" font-family="Helvetica,sans-Serif" font-size="14.00">ManagementPolicy</text>
</g>
<!-- v2 -->
<g id="node2" class="node">
<title>v2</title>
<ellipse fill="white" stroke="black" cx="76.04" cy="-450" rx="56.59" ry="18"/>
<text text-anchor="middle" x="76.04" y="-446.3" font-family="Helvetica,sans-Serif" font-size="14.00">Compliance</text>
</g>
<!-- v1&#45;&gt;v2 -->
<g id="edge1" class="edge">
<title>v1&#45;&gt;v2</title>
<path fill="none" stroke="black" d="M146.81,-503.7C133.58,-493.85 116.95,-481.46 103.14,-471.17"/>
<polygon fill="black" stroke="black" points="104.48,-469.12 97.4,-466.91 101.56,-473.05 104.48,-469.12"/>
</g>
<!-- u2 -->
<g id="node12" class="node">
<title>u2</title>
<polygon fill="lightyellow" stroke="black" points="264.04,-468 150.93,-450 264.04,-432 377.16,-450 264.04,-468"/>
<text text-anchor="middle" x="264.04" y="-446.3" font-family="Helvetica,sans-Serif" font-size="14.00">ManagementCost</text>
</g>
<!-- v1&#45;&gt;u2 -->
<g id="edge11" class="edge">
<title>v1&#45;&gt;u2</title>
<path fill="none" stroke="black" d="M193.28,-503.7C207.27,-493.28 225.06,-480.03 239.31,-469.42"/>
<polygon fill="black" stroke="black" points="241.02,-471.2 245.17,-465.05 238.1,-467.27 241.02,-471.2"/>
</g>
<!-- v3 -->
<g id="node3" class="node">
<title>v3</title>
<ellipse fill="white" stroke="black" cx="76.04" cy="-378" rx="61.99" ry="18"/>
<text text-anchor="middle" x="76.04" y="-374.3" font-family="Helvetica,sans-Serif" font-size="14.00">StockingRate</text>
</g>
<!-- v2&#45;&gt;v3 -->
<g id="edge2" class="edge">
<title>v2&#45;&gt;v3</title>
<path fill="none" stroke="black" d="M76.04,-431.7C76.04,-423.14 76.04,-412.66 76.04,-403.3"/>
<polygon fill="black" stroke="black" points="78.49,-403.1 76.04,-396.1 73.59,-403.1 78.49,-403.1"/>
</g>
<!-- v4 -->
<g id="node4" class="node">
<title>v4</title>
<ellipse fill="white" stroke="black" cx="76.04" cy="-306" rx="76.09" ry="18"/>
<text text-anchor="middle" x="76.04" y="-302.3" font-family="Helvetica,sans-Serif" font-size="14.00">GrazingPressure</text>
</g>
<!-- v3&#45;&gt;v4 -->
<g id="edge3" class="edge">
<title>v3&#45;&gt;v4</title>
<path fill="none" stroke="black" d="M76.04,-359.7C76.04,-351.14 76.04,-340.66 76.04,-331.3"/>
<polygon fill="black" stroke="black" points="78.49,-331.1 76.04,-324.1 73.59,-331.1 78.49,-331.1"/>
</g>
<!-- v8 -->
<g id="node8" class="node">
<title>v8</title>
<ellipse fill="white" stroke="black" cx="152.04" cy="-234" rx="51.19" ry="18"/>
<text text-anchor="middle" x="152.04" y="-230.3" font-family="Helvetica,sans-Serif" font-size="14.00">Vegetation</text>
</g>
<!-- v4&#45;&gt;v8 -->
<g id="edge7" class="edge">
<title>v4&#45;&gt;v8</title>
<path fill="none" stroke="black" d="M94.05,-288.41C104.62,-278.68 118.06,-266.3 129.34,-255.91"/>
<polygon fill="black" stroke="black" points="131.2,-257.53 134.68,-250.99 127.88,-253.93 131.2,-257.53"/>
</g>
<!-- v5 -->
<g id="node5" class="node">
<title>v5</title>
<ellipse fill="white" stroke="black" cx="212.04" cy="-378" rx="39.79" ry="18"/>
<text text-anchor="middle" x="212.04" y="-374.3" font-family="Helvetica,sans-Serif" font-size="14.00">Climate</text>
</g>
<!-- v7 -->
<g id="node7" class="node">
<title>v7</title>
<ellipse fill="white" stroke="black" cx="229.04" cy="-306" rx="58.49" ry="18"/>
<text text-anchor="middle" x="229.04" y="-302.3" font-family="Helvetica,sans-Serif" font-size="14.00">SoilMoisture</text>
</g>
<!-- v5&#45;&gt;v7 -->
<g id="edge4" class="edge">
<title>v5&#45;&gt;v7</title>
<path fill="none" stroke="black" d="M216.16,-360.05C218.26,-351.41 220.85,-340.75 223.15,-331.26"/>
<polygon fill="black" stroke="black" points="225.58,-331.66 224.85,-324.28 220.81,-330.5 225.58,-331.66"/>
</g>
<!-- v6 -->
<g id="node6" class="node">
<title>v6</title>
<ellipse fill="white" stroke="black" cx="313.04" cy="-378" rx="43.59" ry="18"/>
<text text-anchor="middle" x="313.04" y="-374.3" font-family="Helvetica,sans-Serif" font-size="14.00">Irrigation</text>
</g>
<!-- v6&#45;&gt;v7 -->
<g id="edge5" class="edge">
<title>v6&#45;&gt;v7</title>
<path fill="none" stroke="black" d="M294.4,-361.46C282.47,-351.53 266.86,-338.52 253.89,-327.71"/>
<polygon fill="black" stroke="black" points="255.46,-325.82 248.51,-323.22 252.32,-329.59 255.46,-325.82"/>
</g>
<!-- v7&#45;&gt;v8 -->
<g id="edge6" class="edge">
<title>v7&#45;&gt;v8</title>
<path fill="none" stroke="black" d="M211.18,-288.76C200.49,-279.05 186.79,-266.59 175.26,-256.11"/>
<polygon fill="black" stroke="black" points="176.63,-254.04 169.81,-251.15 173.34,-257.67 176.63,-254.04"/>
</g>
<!-- v9 -->
<g id="node9" class="node">
<title>v9</title>
<ellipse fill="white" stroke="black" cx="152.04" cy="-162" rx="64.99" ry="18"/>
<text text-anchor="middle" x="152.04" y="-158.3" font-family="Helvetica,sans-Serif" font-size="14.00">HabitatQuality</text>
</g>
<!-- v8&#45;&gt;v9 -->
<g id="edge8" class="edge">
<title>v8&#45;&gt;v9</title>
<path fill="none" stroke="black" d="M152.04,-215.7C152.04,-207.14 152.04,-196.66 152.04,-187.3"/>
<polygon fill="black" stroke="black" points="154.49,-187.1 152.04,-180.1 149.59,-187.1 154.49,-187.1"/>
</g>
<!-- v10 -->
<g id="node10" class="node">
<title>v10</title>
<ellipse fill="white" stroke="black" cx="152.04" cy="-90" rx="53.89" ry="18"/>
<text text-anchor="middle" x="152.04" y="-86.3" font-family="Helvetica,sans-Serif" font-size="14.00">Occupancy</text>
</g>
<!-- v9&#45;&gt;v10 -->
<g id="edge9" class="edge">
<title>v9&#45;&gt;v10</title>
<path fill="none" stroke="black" d="M152.04,-143.7C152.04,-135.14 152.04,-124.66 152.04,-115.3"/>
<polygon fill="black" stroke="black" points="154.49,-115.1 152.04,-108.1 149.59,-115.1 154.49,-115.1"/>
</g>
<!-- u1 -->
<g id="node11" class="node">
<title>u1</title>
<polygon fill="lightyellow" stroke="black" points="152.04,-36 27.03,-18 152.04,0 277.05,-18 152.04,-36"/>
<text text-anchor="middle" x="152.04" y="-14.3" font-family="Helvetica,sans-Serif" font-size="14.00">ConservationBenefit</text>
</g>
<!-- v10&#45;&gt;u1 -->
<g id="edge10" class="edge">
<title>v10&#45;&gt;u1</title>
<path fill="none" stroke="black" d="M152.04,-71.7C152.04,-63.14 152.04,-52.66 152.04,-43.3"/>
<polygon fill="black" stroke="black" points="154.49,-43.1 152.04,-36.1 149.59,-43.1 154.49,-43.1"/>
</g>
</g>
</svg>
