<?xml version="1.0" encoding="UTF-8" standalone="no"?>
<!DOCTYPE svg PUBLIC "-//W3C//DTD SVG 1.1//EN"
 "http://www.w3.org/Graphics/SVG/1.1/DTD/svg11.dtd">
<!-- Generated by graphviz version 2.50.0 (20211204.2007)
 -->
<!-- Title: G Pages: 1 -->
<svg width="494pt" height="600pt"
 viewBox="0.00 0.00 494.08 600.18" xmlns="http://www.w3.org/2000/svg" xmlns:xlink="http://www.w3.org/1999/xlink">
<g id="graph0" class="graph" transform="scale(1 1) rotate(0) translate(4 596.18)">
<title>G</title>
<polygon fill="white" stroke="transparent" points="-4,4 -4,-596.18 490.08,-596.18 490.08,4 -4,4"/>
<!-- v1 -->
<g id="node1" class="node">
<title>v1</title>
<ellipse fill="white" stroke="black" cx="92.63" cy="-565.31" rx="92.76" ry="26.74"/>
<text text-anchor="middle" x="92.63" y="-569.11" font-family="Helvetica,sans-Serif" font-size="14.00">ManagementPolicy</text>
<text text-anchor="middle" x="92.63" y="-554.11" font-family="Helvetica,sans-Serif" font-size="14.00">{restrict, none}</text>
</g>
<!-- v2 -->
<g id="node2" class="node">
<title>v2</title>
<ellipse fill="white" stroke="black" cx="92.63" cy="-475.57" rx="61.54" ry="26.74"/>
<text text-anchor="middle" x="92.63" y="-479.37" font-family="Helvetica,sans-Serif" font-size="14.00">Compliance</text>
<text text-anchor="middle" x="92.63" y="-464.37" font-family="Helvetica,sans-Serif" font-size="14.00">{high, low}</text>
</g>
<!-- v1&#45;&gt;v2 -->
<g id="edge1" class="edge">
<title>v1&#45;&gt;v2</title>
<path fill="none" stroke="black" d="M92.63,-537.99C92.63,-529.06 92.63,-518.97 92.63,-509.58"/>
<polygon fill="black" stroke="black" points="95.08,-509.57 92.63,-502.57 90.18,-509.57 95.08,-509.57"/>
</g>
<!-- v3 -->
<g id="node3" class="node">
<title>v3</title>
<ellipse fill="white" stroke="black" cx="92.63" cy="-385.83" rx="67.35" ry="26.74"/>
<text text-anchor="middle" x="92.63" y="-389.63" font-family="Helvetica,sans-Serif" font-size="14.00">StockingRate</text>
<text text-anchor="middle" x="92.63" y="-374.63" font-family="Helvetica,sans-Serif" font-size="14.00">{low, high}</text>
</g>
<!-- v2&#45;&gt;v3 -->
<g id="edge2" class="edge">
<title>v2&#45;&gt;v3</title>
<path fill="none" stroke="black" d="M92.63,-448.25C92.63,-439.32 92.63,-429.23 92.63,-419.84"/>
<polygon fill="black" stroke="black" points="95.08,-419.83 92.63,-412.83 90.18,-419.83 95.08,-419.83"/>
</g>
<!-- v4 -->
<g id="node4" class="node">
<title>v4</title>
<ellipse fill="white" stroke="black" cx="92.63" cy="-296.09" rx="82.96" ry="26.74"/>
<text text-anchor="middle" x="92.63" y="-299.89" font-family="Helvetica,sans-Serif" font-size="14.00">GrazingPressure</text>
<text text-anchor="middle" x="92.63" y="-284.89" font-family="Helvetica,sans-Serif" font-size="14.00">{low, high}</text>
</g>
<!-- v3&#45;&gt;v4 -->
<g id="edge3" class="edge">
<title>v3&#45;&gt;v4</title>
<path fill="none" stroke="black" d="M92.63,-358.51C92.63,-349.58 92.63,-339.48 92.63,-330.1"/>
<polygon fill="black" stroke="black" points="95.08,-330.09 92.63,-323.09 90.18,-330.09 95.08,-330.09"/>
</g>
<!-- v8 -->
<g id="node8" class="node">
<title>v8</title>
<ellipse fill="white" stroke="black" cx="189.63" cy="-206.35" rx="123.07" ry="26.74"/>
<text text-anchor="middle" x="189.63" y="-210.15" font-family="Helvetica,sans-Serif" font-size="14.00">Vegetation</text>
<text text-anchor="middle" x="189.63" y="-195.15" font-family="Helvetica,sans-Serif" font-size="14.00">{sparse, moderate, dense}</text>
</g>
<!-- v4&#45;&gt;v8 -->
<g id="edge7" class="edge">
<title>v4&#45;&gt;v8</title>
<path fill="none" stroke="black" d="M119.65,-270.65C131.03,-260.36 144.38,-248.28 156.35,-237.45"/>
<polygon fill="black" stroke="black" points="158.2,-239.09 161.74,-232.58 154.91,-235.45 158.2,-239.09"/>
</g>
<!-- v5 -->
<g id="node5" class="node">
<title>v5</title>
<ellipse fill="white" stroke="black" cx="274.63" cy="-385.83" rx="84.71" ry="26.74"/>
<text text-anchor="middle" x="274.63" y="-389.63" font-family="Helvetica,sans-Serif" font-size="14.00">Climate</text>
<text text-anchor="middle" x="274.63" y="-374.63" font-family="Helvetica,sans-Serif" font-size="14.00">{dry, normal, wet}</text>
</g>
<!-- v7 -->
<g id="node7" class="node">
<title>v7</title>
<ellipse fill="white" stroke="black" cx="287.63" cy="-296.09" rx="94.51" ry="26.74"/>
<text text-anchor="middle" x="287.63" y="-299.89" font-family="Helvetica,sans-Serif" font-size="14.00">SoilMoisture</text>
<text text-anchor="middle" x="287.63" y="-284.89" font-family="Helvetica,sans-Serif" font-size="14.00">{low, medium, high}</text>
</g>
<!-- v5&#45;&gt;v7 -->
<g id="edge4" class="edge">
<title>v5&#45;&gt;v7</title>
<path fill="none" stroke="black" d="M278.46,-358.98C279.8,-349.96 281.32,-339.7 282.73,-330.17"/>
<polygon fill="black" stroke="black" points="285.18,-330.34 283.78,-323.06 280.33,-329.62 285.18,-330.34"/>
</g>
<!-- v6 -->
<g id="node6" class="node">
<title>v6</title>
<ellipse fill="white" stroke="black" cx="431.63" cy="-385.83" rx="54.39" ry="26.74"/>
<text text-anchor="middle" x="431.63" y="-389.63" font-family="Helvetica,sans-Serif" font-size="14.00">Irrigation</text>
<text text-anchor="middle" x="431.63" y="-374.63" font-family="Helvetica,sans-Serif" font-size="14.00">{low, high}</text>
</g>
<!-- v6&#45;&gt;v7 -->
<g id="edge5" class="edge">
<title>v6&#45;&gt;v7</title>
<path fill="none" stroke="black" d="M398.23,-364.48C378.72,-352.59 353.84,-337.43 332.63,-324.51"/>
<polygon fill="black" stroke="black" points="333.71,-322.3 326.46,-320.75 331.16,-326.48 333.71,-322.3"/>
</g>
<!-- v7&#45;&gt;v8 -->
<g id="edge6" class="edge">
<title>v7&#45;&gt;v8</title>
<path fill="none" stroke="black" d="M259.81,-270.18C248.43,-259.99 235.15,-248.11 223.23,-237.43"/>
<polygon fill="black" stroke="black" points="224.71,-235.47 217.86,-232.63 221.44,-239.12 224.71,-235.47"/>
</g>
<!-- v9 -->
<g id="node9" class="node">
<title>v9</title>
<ellipse fill="white" stroke="black" cx="189.63" cy="-116.61" rx="70.92" ry="26.74"/>
<text text-anchor="middle" x="189.63" y="-120.41" font-family="Helvetica,sans-Serif" font-size="14.00">HabitatQuality</text>
<text text-anchor="middle" x="189.63" y="-105.41" font-family="Helvetica,sans-Serif" font-size="14.00">{poor, good}</text>
</g>
<!-- v8&#45;&gt;v9 -->
<g id="edge8" class="edge">
<title>v8&#45;&gt;v9</title>
<path fill="none" stroke="black" d="M189.63,-179.03C189.63,-170.1 189.63,-160 189.63,-150.62"/>
<polygon fill="black" stroke="black" points="192.08,-150.61 189.63,-143.61 187.18,-150.61 192.08,-150.61"/>
</g>
<!-- v10 -->
<g id="node10" class="node">
<title>v10</title>
<ellipse fill="white" stroke="black" stroke-width="2" cx="189.63" cy="-26.87" rx="82.96" ry="26.74"/>
<text text-anchor="middle" x="189.63" y="-30.67" font-family="Helvetica,sans-Serif" font-size="14.00">Occupancy</text>
<text text-anchor="middle" x="189.63" y="-15.67" font-family="Helvetica,sans-Serif" font-size="14.00">{absent, present}</text>
</g>
<!-- v9&#45;&gt;v10 -->
<g id="edge9" class="edge">
<title>v9&#45;&gt;v10</title>
<path fill="none" stroke="black" d="M189.63,-89.29C189.63,-80.36 189.63,-70.26 189.63,-60.88"/>
<polygon fill="black" stroke="black" points="192.08,-60.87 189.63,-53.87 187.18,-60.87 192.08,-60.87"/>
</g>
</g>
</svg>
