<?xml version="1.0" encoding="UTF-8" standalone="no"?>
<!DOCTYPE svg PUBLIC "-//W3C//DTD SVG 1.1//EN"
 "http://www.w3.org/Graphics/SVG/1.1/DTD/svg11.dtd">
<!-- Generated by graphviz version 2.50.0 (20211204.2007)
 -->
<!-- Title: ID Pages: 1 -->
<svg width="479pt" height="332pt"
 viewBox="0.00 0.00 479.04 332.00" xmlns="http://www.w3.org/2000/svg" xmlns:xlink="http://www.w3.org/1999/xlink">
<g id="graph0" class="graph" transform="scale(1 1) rotate(0) translate(4 328)">
<title>ID</title>
<polygon fill="white" stroke="transparent" points="-4,4 -4,-328 475.04,-328 475.04,4 -4,4"/>
<!-- v1 -->
<g id="node1" class="node">
<title>v1</title>
<polygon fill="white" stroke="black" points="292.49,-324 238.49,-324 238.49,-288 292.49,-288 292.49,-324"/>
<text text-anchor="middle" x="265.49" y="-302.3" font-family="Helvetica,sans-Serif" font-size="14.00">Cull</text>
</g>
<!-- v2 -->
<g id="node2" class="node">
<title>v2</title>
<polygon fill="white" stroke="black" points="268.49,-252 200.49,-252 200.49,-216 268.49,-216 268.49,-252"/>
<text text-anchor="middle" x="234.49" y="-230.3" font-family="Helvetica,sans-Serif" font-size="14.00">Relocate</text>
</g>
<!-- v1&#45;&gt;v2 -->
<g id="edge7" class="edge">
<title>v1&#45;&gt;v2</title>
<path fill="none" stroke="black" stroke-dasharray="5,2" d="M257.83,-287.7C253.97,-278.97 249.22,-268.24 245.01,-258.75"/>
<polygon fill="black" stroke="black" points="247.14,-257.51 242.07,-252.1 242.66,-259.5 247.14,-257.51"/>
</g>
<!-- v3 -->
<g id="node3" class="node">
<title>v3</title>
<ellipse fill="white" stroke="black" cx="116.49" cy="-162" rx="73.39" ry="18"/>
<text text-anchor="middle" x="116.49" y="-158.3" font-family="Helvetica,sans-Serif" font-size="14.00">KoalaPopulation</text>
</g>
<!-- v1&#45;&gt;v3 -->
<g id="edge1" class="edge">
<title>v1&#45;&gt;v3</title>
<path fill="none" stroke="black" d="M238.24,-287.87C223.7,-278.15 205.89,-265.3 191.49,-252 169.36,-231.55 147.56,-204.72 133.22,-185.88"/>
<polygon fill="black" stroke="black" points="134.82,-183.94 128.65,-179.82 130.91,-186.89 134.82,-183.94"/>
</g>
<!-- v4 -->
<g id="node4" class="node">
<title>v4</title>
<ellipse fill="white" stroke="black" cx="375.49" cy="-162" rx="95.58" ry="18"/>
<text text-anchor="middle" x="375.49" y="-158.3" font-family="Helvetica,sans-Serif" font-size="14.00">NveSocialImplications</text>
</g>
<!-- v1&#45;&gt;v4 -->
<g id="edge3" class="edge">
<title>v1&#45;&gt;v4</title>
<path fill="none" stroke="black" d="M272.99,-287.88C281.66,-269.14 297.12,-238.75 315.49,-216 324.87,-204.4 336.92,-193.21 347.77,-184.13"/>
<polygon fill="black" stroke="black" points="349.45,-185.92 353.31,-179.58 346.34,-182.13 349.45,-185.92"/>
</g>
<!-- u1 -->
<g id="node7" class="node">
<title>u1</title>
<polygon fill="lightyellow" stroke="black" points="351.49,-252 324.49,-234 351.49,-216 378.49,-234 351.49,-252"/>
<text text-anchor="middle" x="351.49" y="-230.3" font-family="Helvetica,sans-Serif" font-size="14.00">U</text>
</g>
<!-- v1&#45;&gt;u1 -->
<g id="edge8" class="edge">
<title>v1&#45;&gt;u1</title>
<path fill="none" stroke="black" d="M286.75,-287.7C301.38,-275.79 320.55,-260.18 334.23,-249.05"/>
<polygon fill="black" stroke="black" points="335.85,-250.9 339.73,-244.58 332.75,-247.1 335.85,-250.9"/>
</g>
<!-- v2&#45;&gt;v3 -->
<g id="edge2" class="edge">
<title>v2&#45;&gt;v3</title>
<path fill="none" stroke="black" d="M205.63,-215.88C188.74,-205.85 167.34,-193.16 149.74,-182.72"/>
<polygon fill="black" stroke="black" points="150.72,-180.45 143.45,-178.99 148.22,-184.67 150.72,-180.45"/>
</g>
<!-- v2&#45;&gt;v4 -->
<g id="edge4" class="edge">
<title>v2&#45;&gt;v4</title>
<path fill="none" stroke="black" d="M268.63,-216.05C289.16,-205.86 315.36,-192.85 336.68,-182.27"/>
<polygon fill="black" stroke="black" points="337.95,-184.37 343.13,-179.07 335.77,-179.99 337.95,-184.37"/>
</g>
<!-- u2 -->
<g id="node8" class="node">
<title>u2</title>
<polygon fill="lightyellow" stroke="black" points="234.49,-180 207.49,-162 234.49,-144 261.49,-162 234.49,-180"/>
<text text-anchor="middle" x="234.49" y="-158.3" font-family="Helvetica,sans-Serif" font-size="14.00">V</text>
</g>
<!-- v2&#45;&gt;u2 -->
<g id="edge9" class="edge">
<title>v2&#45;&gt;u2</title>
<path fill="none" stroke="black" d="M234.49,-215.7C234.49,-207.14 234.49,-196.66 234.49,-187.3"/>
<polygon fill="black" stroke="black" points="236.94,-187.1 234.49,-180.1 232.04,-187.1 236.94,-187.1"/>
</g>
<!-- v5 -->
<g id="node5" class="node">
<title>v5</title>
<ellipse fill="white" stroke="black" cx="58.49" cy="-90" rx="58.49" ry="18"/>
<text text-anchor="middle" x="58.49" y="-86.3" font-family="Helvetica,sans-Serif" font-size="14.00">TreeSpecies</text>
</g>
<!-- v3&#45;&gt;v5 -->
<g id="edge5" class="edge">
<title>v3&#45;&gt;v5</title>
<path fill="none" stroke="black" d="M102.45,-144.05C94.83,-134.85 85.31,-123.36 77.08,-113.43"/>
<polygon fill="black" stroke="black" points="78.76,-111.62 72.41,-107.79 74.99,-114.74 78.76,-111.62"/>
</g>
<!-- v6 -->
<g id="node6" class="node">
<title>v6</title>
<ellipse fill="white" stroke="black" cx="174.49" cy="-90" rx="39.79" ry="18"/>
<text text-anchor="middle" x="174.49" y="-86.3" font-family="Helvetica,sans-Serif" font-size="14.00">Tourists</text>
</g>
<!-- v3&#45;&gt;v6 -->
<g id="edge6" class="edge">
<title>v3&#45;&gt;v6</title>
<path fill="none" stroke="black" d="M130.53,-144.05C138.34,-134.63 148.14,-122.81 156.51,-112.71"/>
<polygon fill="black" stroke="black" points="158.4,-114.26 160.98,-107.31 154.63,-111.13 158.4,-114.26"/>
</g>
<!-- u3 -->
<g id="node9" class="node">
<title>u3</title>
<polygon fill="lightyellow" stroke="black" points="58.49,-36 31.49,-18 58.49,0 85.49,-18 58.49,-36"/>
<text text-anchor="middle" x="58.49" y="-14.3" font-family="Helvetica,sans-Serif" font-size="14.00">W</text>
</g>
<!-- v5&#45;&gt;u3 -->
<g id="edge10" class="edge">
<title>v5&#45;&gt;u3</title>
<path fill="none" stroke="black" d="M58.49,-71.7C58.49,-63.14 58.49,-52.66 58.49,-43.3"/>
<polygon fill="black" stroke="black" points="60.94,-43.1 58.49,-36.1 56.04,-43.1 60.94,-43.1"/>
</g>
<!-- u4 -->
<g id="node10" class="node">
<title>u4</title>
<polygon fill="lightyellow" stroke="black" points="174.49,-36 147.49,-18 174.49,0 201.49,-18 174.49,-36"/>
<text text-anchor="middle" x="174.49" y="-14.3" font-family="Helvetica,sans-Serif" font-size="14.00">X</text>
</g>
<!-- v6&#45;&gt;u4 -->
<g id="edge11" class="edge">
<title>v6&#45;&gt;u4</title>
<path fill="none" stroke="black" d="M174.49,-71.7C174.49,-63.14 174.49,-52.66 174.49,-43.3"/>
<polygon fill="black" stroke="black" points="176.94,-43.1 174.49,-36.1 172.04,-43.1 176.94,-43.1"/>
</g>
</g>
</svg>
